<svg width="14" height="14" viewBox="0 0 14 14" fill="none" xmlns="http://www.w3.org/2000/svg">
<path d="M1.03125 7.26367C1.03125 5.70117 1.48698 4.39909 2.39844 3.35742C3.34245 2.31576 4.74219 1.79492 6.59766 1.79492C8.45312 1.79492 9.85286 2.31576 10.7969 3.35742C11.7734 4.39909 12.2617 5.70117 12.2617 7.26367C12.2617 8.76107 11.7734 10.0143 10.7969 11.0234C9.85286 12.0326 8.45312 12.5371 6.59766 12.5371C4.74219 12.5371 3.34245 12.0326 2.39844 11.0234C1.48698 10.0143 1.03125 8.76107 1.03125 7.26367Z" fill="#FFA500"/>
<path d="M2.39845 3.35743L1.80557 2.82013L1.79639 2.83063L2.39845 3.35743ZM10.7969 3.35743L10.204 3.89472L10.2132 3.90458L10.7969 3.35743ZM10.7969 11.0234L10.2219 10.467L10.2127 10.4769L10.7969 11.0234ZM2.39845 11.0234L1.80467 11.5597L1.81423 11.57L2.39845 11.0234ZM1.83126 7.26368C1.83126 5.86827 2.2332 4.76116 3.00051 3.88424L1.79639 2.83063C0.74078 4.03704 0.231262 5.5341 0.231262 7.26368H1.83126ZM2.99124 3.89465C3.73909 3.06943 4.89194 2.59493 6.59767 2.59493V0.994934C4.59246 0.994934 2.94583 1.5621 1.80566 2.82022L2.99124 3.89465ZM6.59767 2.59493C8.3034 2.59493 9.45625 3.06943 10.2041 3.89465L11.3897 2.82022C10.2495 1.5621 8.60287 0.994934 6.59767 0.994934V2.59493ZM10.2132 3.90458C11.0371 4.78341 11.4617 5.88355 11.4617 7.26368H13.0617C13.0617 5.51882 12.5097 4.01479 11.3805 2.81028L10.2132 3.90458ZM11.4617 7.26368C11.4617 8.56863 11.0439 9.61777 10.222 10.4671L11.3718 11.5798C12.5029 10.4109 13.0617 8.95353 13.0617 7.26368H11.4617ZM10.2127 10.4769C9.46657 11.2745 8.31075 11.7371 6.59767 11.7371V13.3371C8.59552 13.3371 10.2392 12.7906 11.3811 11.57L10.2127 10.4769ZM6.59767 11.7371C4.88458 11.7371 3.72876 11.2745 2.98266 10.4769L1.81423 11.57C2.95615 12.7906 4.59981 13.3371 6.59767 13.3371V11.7371ZM2.99213 10.4872C2.22732 9.64047 1.83126 8.58464 1.83126 7.26368H0.231262C0.231262 8.93752 0.746659 10.3882 1.80477 11.5597L2.99213 10.4872Z" fill="black"/>
</svg>
