<svg width="315" height="55" viewBox="0 0 315 55" fill="none" xmlns="http://www.w3.org/2000/svg">
<path d="M0 10C0 4.47715 4.47715 0 10 0H305C310.523 0 315 4.47715 315 10V45C315 50.5228 310.523 55 305 55H10C4.47715 55 0 50.5228 0 45V10Z" fill="black"/>
<path d="M11.0926 35.688C11.0286 35.3893 10.9966 34.8133 10.9966 33.96C10.9966 33.1067 11.1566 32.2 11.4766 31.24H11.7646C11.7433 31.4747 11.7326 31.7093 11.7326 31.944C11.7326 33.2453 12.1273 34.3333 12.9166 35.208C13.706 36.0613 14.7513 36.488 16.0526 36.488C17.3966 36.488 18.4953 36.0827 19.3486 35.272C20.2233 34.4613 20.6606 33.448 20.6606 32.232C20.6606 30.9947 20.2446 29.992 19.4126 29.224L13.2686 23.528C12.1166 22.4613 11.5406 21.1707 11.5406 19.656C11.5406 18.1413 12.042 16.8507 13.0446 15.784C14.0686 14.696 15.4446 14.152 17.1726 14.152C17.9833 14.152 18.9006 14.2587 19.9246 14.472H21.1726V18.408H20.8846C20.8846 17.4053 20.5326 16.6053 19.8286 16.008C19.146 15.4107 18.2606 15.112 17.1726 15.112C16.0846 15.112 15.1673 15.4747 14.4206 16.2C13.6953 16.9253 13.3326 17.832 13.3326 18.92C13.3326 20.008 13.7593 20.9467 14.6126 21.736L20.9166 27.56C21.9833 28.5413 22.5166 29.8853 22.5166 31.592C22.5166 33.2987 21.9726 34.7067 20.8846 35.816C19.7966 36.904 18.346 37.448 16.5326 37.448C15.594 37.448 14.5913 37.2987 13.5246 37C12.4793 36.7227 11.6686 36.2853 11.0926 35.688ZM29.8241 30.184C30.1921 30.28 30.5281 30.328 30.8321 30.328C31.1361 30.328 31.3841 30.32 31.5761 30.304C31.7681 30.288 32.0401 30.24 32.3921 30.16C32.7441 30.064 33.0641 29.92 33.3521 29.728C34.0241 29.312 34.5201 28.656 34.8401 27.76C34.9521 27.44 35.0081 27.008 35.0081 26.464C35.0081 25.488 34.6721 24.72 34.0001 24.16C33.3281 23.6 32.4001 23.32 31.2161 23.32H28.8881V35.464C28.9041 35.976 29.1361 36.352 29.5841 36.592C29.7921 36.704 30.0241 36.76 30.2801 36.76H30.6161V37H25.6481V36.76H25.9841C26.3681 36.76 26.6881 36.64 26.9441 36.4C27.2161 36.144 27.3601 35.84 27.3761 35.488V24.112C27.3601 23.744 27.2161 23.44 26.9441 23.2C26.6881 22.96 26.3681 22.84 25.9841 22.84H25.6481V22.6H31.2641C32.9441 22.6 34.2721 22.968 35.2481 23.704C36.2401 24.44 36.7361 25.432 36.7361 26.68C36.7361 27.576 36.5281 28.36 36.1121 29.032C35.2961 30.344 34.0321 31 32.3201 31C31.4721 31 30.6401 30.808 29.8241 30.424V30.184ZM52.1213 36.76H52.3133V37H47.3933V36.76H47.5853C47.8893 36.76 48.1213 36.656 48.2812 36.448C48.4413 36.24 48.5213 36.048 48.5213 35.872C48.5213 35.68 48.4893 35.496 48.4253 35.32L47.1053 32.128H41.0333L39.7133 35.248C39.6333 35.456 39.5933 35.656 39.5933 35.848C39.5933 36.024 39.6733 36.224 39.8333 36.448C39.9933 36.656 40.2333 36.76 40.5533 36.76H40.7453V37H36.1612V36.76H36.3533C36.6893 36.76 37.0253 36.648 37.3613 36.424C37.7133 36.184 38.0013 35.832 38.2253 35.368C41.7293 27.88 43.5533 23.96 43.6973 23.608C43.9693 22.936 44.1133 22.488 44.1293 22.264H44.3453L50.2733 35.368C50.7373 36.296 51.3533 36.76 52.1213 36.76ZM41.3453 31.408H46.8173L44.1293 24.832L41.3453 31.408ZM60.9638 37.336C58.5158 37.32 56.5798 36.64 55.1558 35.296C53.7478 33.952 53.0438 32.12 53.0438 29.8C53.0438 27.464 53.7478 25.624 55.1558 24.28C56.5798 22.936 58.5158 22.264 60.9638 22.264C61.9558 22.264 62.9558 22.392 63.9637 22.648C64.9718 22.904 65.8438 23.256 66.5798 23.704L67.1078 27.112H66.8918C66.2038 24.36 64.2198 22.984 60.9398 22.984C59.0358 22.984 57.5318 23.592 56.4278 24.808C55.3238 26.024 54.7718 27.688 54.7718 29.8C54.7718 31.176 55.0198 32.376 55.5158 33.4C56.0118 34.408 56.7318 35.192 57.6758 35.752C58.6198 36.312 59.7158 36.592 60.9638 36.592C62.2118 36.592 63.2998 36.408 64.2278 36.04C65.1718 35.656 65.9478 35.032 66.5558 34.168C67.1798 33.304 67.5318 32.232 67.6118 30.952H67.8278L67.5638 34.24C66.9398 35.2 66.0358 35.96 64.8518 36.52C63.6678 37.064 62.3718 37.336 60.9638 37.336ZM70.4216 36.76C70.8056 36.76 71.1256 36.64 71.3816 36.4C71.6536 36.144 71.7976 35.84 71.8136 35.488V24.088C71.8136 23.736 71.6776 23.44 71.4056 23.2C71.1336 22.96 70.8056 22.84 70.4216 22.84H70.0856V22.6H77.0936C77.7496 22.6 78.3256 22.552 78.8216 22.456C79.3176 22.36 79.6376 22.28 79.7816 22.216V24.952L79.5176 24.928V24.568C79.5176 24.232 79.4056 23.944 79.1816 23.704C78.9576 23.464 78.6696 23.344 78.3176 23.344H73.3256V29.44H77.4296C77.7496 29.44 77.9896 29.344 78.1496 29.152C78.3256 28.96 78.4136 28.72 78.4136 28.432V28.12H78.6776V31.48H78.4136V31.168C78.4136 30.72 78.2456 30.416 77.9096 30.256C77.7816 30.208 77.6456 30.176 77.5016 30.16H73.3256V36.256H77.0936C77.8296 36.256 78.4456 36.128 78.9416 35.872C79.4536 35.616 79.8376 35.312 80.0936 34.96C80.3656 34.608 80.6376 34.144 80.9096 33.568H81.1496L79.8296 37H70.0856V36.76H70.4216ZM106.715 17.448C106.715 16.936 106.534 16.4987 106.171 16.136C105.809 15.752 105.382 15.5493 104.891 15.528H98.8112V34.696C98.8325 35.2507 99.0352 35.72 99.4192 36.104C99.8245 36.488 100.305 36.68 100.859 36.68H101.275V37H94.2672V36.68H94.6832C95.2379 36.68 95.7072 36.488 96.0912 36.104C96.4965 35.72 96.7099 35.2613 96.7312 34.728V15.528H90.6512C90.1392 15.5493 89.7019 15.752 89.3392 16.136C88.9979 16.4987 88.8272 16.936 88.8272 17.448V17.992L88.5072 18.024V13.992C88.8272 14.12 89.3819 14.248 90.1712 14.376C90.9605 14.504 91.6859 14.568 92.3472 14.568H103.163C104.209 14.568 105.073 14.4933 105.755 14.344C106.459 14.1733 106.886 14.056 107.035 13.992V18.024L106.715 17.992V17.448ZM113.456 23.344H112.184V35.464C112.2 35.96 112.424 36.336 112.856 36.592C113.064 36.704 113.296 36.76 113.552 36.76H113.864L113.888 37H108.968V36.76H109.304C109.672 36.76 109.984 36.64 110.24 36.4C110.512 36.144 110.648 35.84 110.648 35.488V24.088C110.648 23.736 110.512 23.44 110.24 23.2C109.984 22.96 109.672 22.84 109.304 22.84H108.968V22.6H114.992C116.496 22.6 117.68 22.944 118.544 23.632C119.424 24.32 119.864 25.224 119.864 26.344C119.864 27.464 119.512 28.4 118.808 29.152C118.104 29.904 117.208 30.336 116.12 30.448C116.632 30.672 117.248 31.296 117.968 32.32C117.952 32.32 118.224 32.672 118.784 33.376C119.36 34.08 119.816 34.632 120.152 35.032C120.504 35.416 120.792 35.712 121.016 35.92C121.608 36.48 122.288 36.76 123.056 36.76V37H122.312C121.048 37 120.056 36.752 119.336 36.256C118.792 35.888 118.296 35.432 117.848 34.888C117.752 34.76 117.344 34.2 116.624 33.208C115.92 32.2 115.544 31.664 115.496 31.6C114.632 30.528 113.824 29.992 113.072 29.992V29.752C114.944 29.752 116.072 29.656 116.456 29.464C116.984 29.192 117.344 28.904 117.536 28.6C117.936 27.96 118.136 27.256 118.136 26.488C118.136 25.512 117.848 24.76 117.272 24.232C116.696 23.704 115.92 23.416 114.944 23.368C114.512 23.352 114.016 23.344 113.456 23.344ZM138.535 36.76H138.727V37H133.807V36.76H133.999C134.303 36.76 134.535 36.656 134.695 36.448C134.855 36.24 134.935 36.048 134.935 35.872C134.935 35.68 134.903 35.496 134.839 35.32L133.519 32.128H127.447L126.127 35.248C126.047 35.456 126.007 35.656 126.007 35.848C126.007 36.024 126.087 36.224 126.247 36.448C126.407 36.656 126.647 36.76 126.967 36.76H127.159V37H122.575V36.76H122.767C123.103 36.76 123.439 36.648 123.775 36.424C124.127 36.184 124.415 35.832 124.639 35.368C128.143 27.88 129.967 23.96 130.111 23.608C130.383 22.936 130.527 22.488 130.543 22.264H130.759L136.687 35.368C137.151 36.296 137.767 36.76 138.535 36.76ZM127.759 31.408H133.231L130.543 24.832L127.759 31.408ZM152.626 22.84H152.434C152.082 22.84 151.738 22.96 151.402 23.2C151.066 23.424 150.778 23.768 150.538 24.232C147.05 31.72 145.234 35.64 145.09 35.992C144.818 36.664 144.674 37.112 144.658 37.336H144.442L138.514 24.256C138.05 23.312 137.434 22.84 136.666 22.84H136.474V22.6H141.394V22.84H141.202C140.898 22.84 140.666 22.952 140.506 23.176C140.362 23.384 140.29 23.576 140.29 23.752C140.29 23.928 140.314 24.112 140.362 24.304L144.658 34.768L149.074 24.352C149.154 24.144 149.194 23.952 149.194 23.776C149.194 23.584 149.114 23.384 148.954 23.176C148.794 22.952 148.554 22.84 148.234 22.84H148.066V22.6H152.626V22.84ZM154.14 36.76C154.524 36.76 154.844 36.64 155.1 36.4C155.372 36.144 155.516 35.84 155.532 35.488V24.088C155.532 23.736 155.396 23.44 155.124 23.2C154.852 22.96 154.524 22.84 154.14 22.84H153.804V22.6H160.812C161.468 22.6 162.044 22.552 162.54 22.456C163.036 22.36 163.356 22.28 163.5 22.216V24.952L163.236 24.928V24.568C163.236 24.232 163.124 23.944 162.9 23.704C162.676 23.464 162.388 23.344 162.036 23.344H157.044V29.44H161.148C161.468 29.44 161.708 29.344 161.868 29.152C162.044 28.96 162.132 28.72 162.132 28.432V28.12H162.396V31.48H162.132V31.168C162.132 30.72 161.964 30.416 161.628 30.256C161.5 30.208 161.364 30.176 161.22 30.16H157.044V36.256H160.812C161.548 36.256 162.164 36.128 162.66 35.872C163.172 35.616 163.556 35.312 163.812 34.96C164.084 34.608 164.356 34.144 164.628 33.568H164.868L163.548 37H153.804V36.76H154.14ZM167.008 36.76C167.392 36.76 167.712 36.64 167.968 36.4C168.24 36.144 168.384 35.84 168.4 35.488V24.136C168.384 23.784 168.232 23.48 167.944 23.224C167.672 22.968 167.344 22.84 166.96 22.84H166.672V22.6H171.64V22.84H171.352C170.968 22.84 170.632 22.968 170.344 23.224C170.072 23.48 169.936 23.784 169.936 24.136V36.256H173.68C174.416 36.256 175.04 36.128 175.552 35.872C176.064 35.616 176.448 35.312 176.704 34.96C176.976 34.608 177.24 34.144 177.496 33.568H177.736L176.416 37H166.672V36.76H167.008ZM207.131 36.68H207.387V37H200.187V36.68H200.475C200.923 36.68 201.253 36.5413 201.467 36.264C201.701 35.9653 201.819 35.688 201.819 35.432C201.819 35.176 201.776 34.92 201.691 34.664L199.643 29.224H191.003L188.859 34.696C188.773 34.952 188.731 35.208 188.731 35.464C188.731 35.6987 188.837 35.9653 189.051 36.264C189.285 36.5413 189.627 36.68 190.075 36.68H190.363V37H183.931V36.68H184.219C184.752 36.68 185.275 36.5093 185.787 36.168C186.299 35.8267 186.715 35.3253 187.035 34.664L194.267 17.448C195.056 15.72 195.451 14.6213 195.451 14.152H195.739L204.315 34.664C204.613 35.3253 205.019 35.8267 205.531 36.168C206.043 36.5093 206.576 36.68 207.131 36.68ZM191.387 28.264H199.259L195.419 17.992L191.387 28.264ZM216.072 37.336C213.688 37.32 211.776 36.64 210.336 35.296C208.912 33.936 208.2 32.104 208.2 29.8C208.2 27.48 208.912 25.648 210.336 24.304C211.776 22.944 213.624 22.264 215.88 22.264C218.152 22.264 220.08 22.744 221.664 23.704L222.192 27.112H221.976C221.64 25.704 220.984 24.664 220.008 23.992C219.048 23.32 217.68 22.984 215.904 22.984C214.144 22.984 212.704 23.6 211.584 24.832C210.48 26.048 209.928 27.704 209.928 29.8C209.928 31.896 210.488 33.56 211.608 34.792C212.728 36.008 214.272 36.616 216.24 36.616C218.224 36.616 219.928 35.92 221.352 34.528L221.376 31.336C221.392 31.048 221.296 30.824 221.088 30.664C220.896 30.488 220.624 30.4 220.272 30.4H219.936V30.16H224.328V30.4H223.992C223.272 30.4 222.912 30.72 222.912 31.36V34.24C222.24 35.072 221.312 35.8 220.128 36.424C218.96 37.032 217.608 37.336 216.072 37.336ZM226.117 36.76C226.501 36.76 226.821 36.64 227.077 36.4C227.349 36.144 227.493 35.84 227.509 35.488V24.088C227.509 23.736 227.373 23.44 227.101 23.2C226.829 22.96 226.501 22.84 226.117 22.84H225.781V22.6H232.789C233.445 22.6 234.021 22.552 234.517 22.456C235.013 22.36 235.333 22.28 235.477 22.216V24.952L235.213 24.928V24.568C235.213 24.232 235.101 23.944 234.877 23.704C234.653 23.464 234.365 23.344 234.013 23.344H229.021V29.44H233.125C233.445 29.44 233.685 29.344 233.845 29.152C234.021 28.96 234.109 28.72 234.109 28.432V28.12H234.373V31.48H234.109V31.168C234.109 30.72 233.941 30.416 233.605 30.256C233.477 30.208 233.341 30.176 233.197 30.16H229.021V36.256H232.789C233.525 36.256 234.141 36.128 234.637 35.872C235.149 35.616 235.533 35.312 235.789 34.96C236.061 34.608 236.333 34.144 236.605 33.568H236.845L235.525 37H225.781V36.76H226.117ZM255.011 22.84C254.659 22.84 254.355 22.96 254.099 23.2C253.843 23.424 253.707 23.704 253.691 24.04V34.264C253.691 35.192 253.747 36.072 253.859 36.904L253.907 37.336H253.691L241.211 25.504V35.512C241.211 35.864 241.339 36.16 241.595 36.4C241.851 36.64 242.163 36.76 242.531 36.76H242.939V37H238.403V36.76H238.811C239.179 36.76 239.491 36.64 239.747 36.4C240.003 36.16 240.131 35.864 240.131 35.512V25.24C240.131 24.264 240.075 23.392 239.963 22.624L239.915 22.24L240.179 22.264L252.635 34V24.04C252.603 23.704 252.459 23.424 252.203 23.2C251.947 22.96 251.643 22.84 251.291 22.84H250.883V22.6H255.419V22.84H255.011ZM265.268 37.336C262.82 37.32 260.884 36.64 259.46 35.296C258.052 33.952 257.348 32.12 257.348 29.8C257.348 27.464 258.052 25.624 259.46 24.28C260.884 22.936 262.82 22.264 265.268 22.264C266.26 22.264 267.26 22.392 268.268 22.648C269.276 22.904 270.148 23.256 270.884 23.704L271.412 27.112H271.196C270.508 24.36 268.524 22.984 265.244 22.984C263.34 22.984 261.836 23.592 260.732 24.808C259.628 26.024 259.076 27.688 259.076 29.8C259.076 31.176 259.324 32.376 259.82 33.4C260.316 34.408 261.036 35.192 261.98 35.752C262.924 36.312 264.02 36.592 265.268 36.592C266.516 36.592 267.604 36.408 268.532 36.04C269.476 35.656 270.252 35.032 270.86 34.168C271.484 33.304 271.836 32.232 271.916 30.952H272.132L271.868 34.24C271.244 35.2 270.34 35.96 269.156 36.52C267.972 37.064 266.676 37.336 265.268 37.336ZM288.55 22.84H288.262C287.83 22.84 287.414 22.96 287.014 23.2C286.63 23.424 286.31 23.712 286.054 24.064L281.446 31.048V35.464C281.446 35.816 281.582 36.12 281.854 36.376C282.126 36.632 282.454 36.76 282.838 36.76H283.126V37H278.206V36.76H278.494C278.878 36.76 279.206 36.632 279.478 36.376C279.75 36.12 279.886 35.816 279.886 35.464V31.024L275.446 24.04C274.902 23.24 274.166 22.84 273.238 22.84H272.95V22.6H278.518V22.84H278.23C277.926 22.84 277.702 22.936 277.558 23.128C277.43 23.32 277.366 23.488 277.366 23.632C277.366 23.76 277.382 23.88 277.414 23.992L280.918 30.208L284.638 24.016C284.686 23.888 284.71 23.76 284.71 23.632C284.71 23.488 284.638 23.32 284.494 23.128C284.366 22.936 284.142 22.84 283.822 22.84H283.534V22.6H288.55V22.84Z" fill="white"/>
<path d="M302.23 36.424C301.675 36.9787 300.993 37.256 300.182 37.256C299.371 37.256 298.689 36.9787 298.134 36.424C297.579 35.8693 297.302 35.1867 297.302 34.376C297.302 33.5653 297.579 32.8827 298.134 32.328C298.689 31.7733 299.371 31.496 300.182 31.496C300.993 31.496 301.675 31.7733 302.23 32.328C302.785 32.8827 303.062 33.5653 303.062 34.376C303.062 35.1867 302.785 35.8693 302.23 36.424Z" fill="#FFA500"/>
<rect x="0.5" y="0.5" width="314" height="54" rx="9.5" stroke="white"/>
</svg>
