<svg width="315" height="55" viewBox="0 0 315 55" fill="none" xmlns="http://www.w3.org/2000/svg">
<path d="M0 10C0 4.47715 4.47715 0 10 0H305C310.523 0 315 4.47715 315 10V45C315 50.5228 310.523 55 305 55H10C4.47715 55 0 50.5228 0 45V10Z" fill="black"/>
<path d="M8.58481 35.688C8.52081 35.3893 8.48881 34.8133 8.48881 33.96C8.48881 33.1067 8.64881 32.2 8.96881 31.24H9.25681C9.23548 31.4747 9.22481 31.7093 9.22481 31.944C9.22481 33.2453 9.61948 34.3333 10.4088 35.208C11.1981 36.0613 12.2435 36.488 13.5448 36.488C14.8888 36.488 15.9875 36.0827 16.8408 35.272C17.7155 34.4613 18.1528 33.448 18.1528 32.232C18.1528 30.9947 17.7368 29.992 16.9048 29.224L10.7608 23.528C9.60881 22.4613 9.03281 21.1707 9.03281 19.656C9.03281 18.1413 9.53415 16.8507 10.5368 15.784C11.5608 14.696 12.9368 14.152 14.6648 14.152C15.4755 14.152 16.3928 14.2587 17.4168 14.472H18.6648V18.408H18.3768C18.3768 17.4053 18.0248 16.6053 17.3208 16.008C16.6381 15.4107 15.7528 15.112 14.6648 15.112C13.5768 15.112 12.6595 15.4747 11.9128 16.2C11.1875 16.9253 10.8248 17.832 10.8248 18.92C10.8248 20.008 11.2515 20.9467 12.1048 21.736L18.4088 27.56C19.4755 28.5413 20.0088 29.8853 20.0088 31.592C20.0088 33.2987 19.4648 34.7067 18.3768 35.816C17.2888 36.904 15.8381 37.448 14.0248 37.448C13.0861 37.448 12.0835 37.2987 11.0168 37C9.97148 36.7227 9.16081 36.2853 8.58481 35.688ZM27.3163 30.184C27.6843 30.28 28.0203 30.328 28.3243 30.328C28.6283 30.328 28.8763 30.32 29.0683 30.304C29.2603 30.288 29.5323 30.24 29.8843 30.16C30.2363 30.064 30.5563 29.92 30.8443 29.728C31.5163 29.312 32.0123 28.656 32.3323 27.76C32.4443 27.44 32.5003 27.008 32.5003 26.464C32.5003 25.488 32.1643 24.72 31.4923 24.16C30.8203 23.6 29.8923 23.32 28.7083 23.32H26.3803V35.464C26.3963 35.976 26.6283 36.352 27.0763 36.592C27.2843 36.704 27.5163 36.76 27.7723 36.76H28.1083V37H23.1403V36.76H23.4763C23.8603 36.76 24.1803 36.64 24.4363 36.4C24.7083 36.144 24.8523 35.84 24.8683 35.488V24.112C24.8523 23.744 24.7083 23.44 24.4363 23.2C24.1803 22.96 23.8603 22.84 23.4763 22.84H23.1403V22.6H28.7563C30.4363 22.6 31.7643 22.968 32.7403 23.704C33.7323 24.44 34.2283 25.432 34.2283 26.68C34.2283 27.576 34.0203 28.36 33.6043 29.032C32.7883 30.344 31.5243 31 29.8123 31C28.9643 31 28.1323 30.808 27.3163 30.424V30.184ZM49.6134 36.76H49.8054V37H44.8854V36.76H45.0774C45.3814 36.76 45.6134 36.656 45.7734 36.448C45.9334 36.24 46.0134 36.048 46.0134 35.872C46.0134 35.68 45.9814 35.496 45.9174 35.32L44.5974 32.128H38.5254L37.2054 35.248C37.1254 35.456 37.0854 35.656 37.0854 35.848C37.0854 36.024 37.1654 36.224 37.3254 36.448C37.4854 36.656 37.7254 36.76 38.0454 36.76H38.2374V37H33.6534V36.76H33.8454C34.1814 36.76 34.5174 36.648 34.8534 36.424C35.2054 36.184 35.4934 35.832 35.7174 35.368C39.2214 27.88 41.0454 23.96 41.1894 23.608C41.4614 22.936 41.6054 22.488 41.6214 22.264H41.8374L47.7654 35.368C48.2294 36.296 48.8454 36.76 49.6134 36.76ZM38.8374 31.408H44.3094L41.6214 24.832L38.8374 31.408ZM58.4559 37.336C56.0079 37.32 54.0719 36.64 52.6479 35.296C51.2399 33.952 50.5359 32.12 50.5359 29.8C50.5359 27.464 51.2399 25.624 52.6479 24.28C54.0719 22.936 56.0079 22.264 58.4559 22.264C59.4479 22.264 60.4479 22.392 61.4559 22.648C62.4639 22.904 63.3359 23.256 64.0719 23.704L64.5999 27.112H64.3839C63.6959 24.36 61.7119 22.984 58.4319 22.984C56.5279 22.984 55.0239 23.592 53.9199 24.808C52.8159 26.024 52.2639 27.688 52.2639 29.8C52.2639 31.176 52.5119 32.376 53.0079 33.4C53.5039 34.408 54.2239 35.192 55.1679 35.752C56.1119 36.312 57.2079 36.592 58.4559 36.592C59.7039 36.592 60.7919 36.408 61.7199 36.04C62.6639 35.656 63.4399 35.032 64.0479 34.168C64.6719 33.304 65.0239 32.232 65.1039 30.952H65.3199L65.0559 34.24C64.4319 35.2 63.5279 35.96 62.3439 36.52C61.1599 37.064 59.8639 37.336 58.4559 37.336ZM67.9138 36.76C68.2978 36.76 68.6178 36.64 68.8738 36.4C69.1458 36.144 69.2898 35.84 69.3058 35.488V24.088C69.3058 23.736 69.1698 23.44 68.8978 23.2C68.6258 22.96 68.2978 22.84 67.9138 22.84H67.5778V22.6H74.5858C75.2418 22.6 75.8178 22.552 76.3138 22.456C76.8098 22.36 77.1298 22.28 77.2738 22.216V24.952L77.0098 24.928V24.568C77.0098 24.232 76.8978 23.944 76.6738 23.704C76.4498 23.464 76.1618 23.344 75.8098 23.344H70.8178V29.44H74.9218C75.2418 29.44 75.4818 29.344 75.6418 29.152C75.8178 28.96 75.9058 28.72 75.9058 28.432V28.12H76.1698V31.48H75.9058V31.168C75.9058 30.72 75.7378 30.416 75.4018 30.256C75.2738 30.208 75.1378 30.176 74.9938 30.16H70.8178V36.256H74.5858C75.3218 36.256 75.9378 36.128 76.4338 35.872C76.9458 35.616 77.3298 35.312 77.5858 34.96C77.8578 34.608 78.1298 34.144 78.4018 33.568H78.6418L77.3218 37H67.5778V36.76H67.9138ZM104.207 17.448C104.207 16.936 104.026 16.4987 103.663 16.136C103.301 15.752 102.874 15.5493 102.383 15.528H96.3034V34.696C96.3247 35.2507 96.5274 35.72 96.9114 36.104C97.3167 36.488 97.7967 36.68 98.3514 36.68H98.7674V37H91.7594V36.68H92.1754C92.73 36.68 93.1994 36.488 93.5834 36.104C93.9887 35.72 94.202 35.2613 94.2234 34.728V15.528H88.1434C87.6314 15.5493 87.194 15.752 86.8314 16.136C86.49 16.4987 86.3194 16.936 86.3194 17.448V17.992L85.9994 18.024V13.992C86.3194 14.12 86.874 14.248 87.6634 14.376C88.4527 14.504 89.178 14.568 89.8394 14.568H100.655C101.701 14.568 102.565 14.4933 103.247 14.344C103.951 14.1733 104.378 14.056 104.527 13.992V18.024L104.207 17.992V17.448ZM112.885 18.792H111.189V34.952C111.21 35.6133 111.509 36.1147 112.085 36.456C112.362 36.6053 112.671 36.68 113.013 36.68H113.429L113.461 37H106.901V36.68H107.349C107.839 36.68 108.255 36.52 108.597 36.2C108.959 35.8587 109.141 35.4533 109.141 34.984V19.784C109.141 19.3147 108.959 18.92 108.597 18.6C108.255 18.28 107.839 18.12 107.349 18.12H106.901V17.8H114.933C116.938 17.8 118.517 18.2587 119.669 19.176C120.842 20.0933 121.429 21.2987 121.429 22.792C121.429 24.2853 120.959 25.5333 120.021 26.536C119.082 27.5387 117.887 28.1147 116.437 28.264C117.119 28.5627 117.941 29.3947 118.901 30.76C118.879 30.76 119.242 31.2293 119.989 32.168C120.757 33.1067 121.365 33.8427 121.813 34.376C122.282 34.888 122.666 35.2827 122.965 35.56C123.754 36.3067 124.661 36.68 125.685 36.68V37H124.693C123.007 37 121.685 36.6693 120.725 36.008C119.999 35.5173 119.338 34.9093 118.741 34.184C118.613 34.0133 118.069 33.2667 117.109 31.944C116.17 30.6 115.669 29.8853 115.605 29.8C114.453 28.3707 113.375 27.656 112.373 27.656V27.336C114.869 27.336 116.373 27.208 116.885 26.952C117.589 26.5893 118.069 26.2053 118.325 25.8C118.858 24.9467 119.125 24.008 119.125 22.984C119.125 21.6827 118.741 20.68 117.973 19.976C117.205 19.272 116.17 18.888 114.869 18.824C114.293 18.8027 113.631 18.792 112.885 18.792ZM141.043 36.76H141.235V37H136.315V36.76H136.507C136.811 36.76 137.043 36.656 137.203 36.448C137.363 36.24 137.443 36.048 137.443 35.872C137.443 35.68 137.411 35.496 137.347 35.32L136.027 32.128H129.955L128.635 35.248C128.555 35.456 128.515 35.656 128.515 35.848C128.515 36.024 128.595 36.224 128.755 36.448C128.915 36.656 129.155 36.76 129.475 36.76H129.667V37H125.083V36.76H125.275C125.611 36.76 125.947 36.648 126.283 36.424C126.635 36.184 126.923 35.832 127.147 35.368C130.651 27.88 132.475 23.96 132.619 23.608C132.891 22.936 133.035 22.488 133.051 22.264H133.267L139.195 35.368C139.659 36.296 140.275 36.76 141.043 36.76ZM130.267 31.408H135.739L133.051 24.832L130.267 31.408ZM155.134 22.84H154.942C154.59 22.84 154.246 22.96 153.91 23.2C153.574 23.424 153.286 23.768 153.046 24.232C149.558 31.72 147.742 35.64 147.598 35.992C147.326 36.664 147.182 37.112 147.166 37.336H146.95L141.022 24.256C140.558 23.312 139.942 22.84 139.174 22.84H138.982V22.6H143.902V22.84H143.71C143.406 22.84 143.174 22.952 143.014 23.176C142.87 23.384 142.798 23.576 142.798 23.752C142.798 23.928 142.822 24.112 142.87 24.304L147.166 34.768L151.582 24.352C151.662 24.144 151.702 23.952 151.702 23.776C151.702 23.584 151.622 23.384 151.462 23.176C151.302 22.952 151.062 22.84 150.742 22.84H150.574V22.6H155.134V22.84ZM156.648 36.76C157.032 36.76 157.352 36.64 157.608 36.4C157.88 36.144 158.024 35.84 158.04 35.488V24.088C158.04 23.736 157.904 23.44 157.632 23.2C157.36 22.96 157.032 22.84 156.648 22.84H156.312V22.6H163.32C163.976 22.6 164.552 22.552 165.048 22.456C165.544 22.36 165.864 22.28 166.008 22.216V24.952L165.744 24.928V24.568C165.744 24.232 165.632 23.944 165.408 23.704C165.184 23.464 164.896 23.344 164.544 23.344H159.552V29.44H163.656C163.976 29.44 164.216 29.344 164.376 29.152C164.552 28.96 164.64 28.72 164.64 28.432V28.12H164.904V31.48H164.64V31.168C164.64 30.72 164.472 30.416 164.136 30.256C164.008 30.208 163.872 30.176 163.728 30.16H159.552V36.256H163.32C164.056 36.256 164.672 36.128 165.168 35.872C165.68 35.616 166.064 35.312 166.32 34.96C166.592 34.608 166.864 34.144 167.136 33.568H167.376L166.056 37H156.312V36.76H156.648ZM169.515 36.76C169.899 36.76 170.219 36.64 170.475 36.4C170.747 36.144 170.891 35.84 170.907 35.488V24.136C170.891 23.784 170.739 23.48 170.451 23.224C170.179 22.968 169.851 22.84 169.467 22.84H169.179V22.6H174.147V22.84H173.859C173.475 22.84 173.139 22.968 172.851 23.224C172.579 23.48 172.443 23.784 172.443 24.136V36.256H176.187C176.923 36.256 177.547 36.128 178.059 35.872C178.571 35.616 178.955 35.312 179.211 34.96C179.483 34.608 179.747 34.144 180.003 33.568H180.243L178.923 37H169.179V36.76H169.515ZM209.639 36.68H209.895V37H202.695V36.68H202.983C203.431 36.68 203.761 36.5413 203.975 36.264C204.209 35.9653 204.327 35.688 204.327 35.432C204.327 35.176 204.284 34.92 204.199 34.664L202.151 29.224H193.511L191.367 34.696C191.281 34.952 191.239 35.208 191.239 35.464C191.239 35.6987 191.345 35.9653 191.559 36.264C191.793 36.5413 192.135 36.68 192.583 36.68H192.871V37H186.439V36.68H186.727C187.26 36.68 187.783 36.5093 188.295 36.168C188.807 35.8267 189.223 35.3253 189.543 34.664L196.775 17.448C197.564 15.72 197.959 14.6213 197.959 14.152H198.247L206.823 34.664C207.121 35.3253 207.527 35.8267 208.039 36.168C208.551 36.5093 209.084 36.68 209.639 36.68ZM193.895 28.264H201.767L197.927 17.992L193.895 28.264ZM218.58 37.336C216.196 37.32 214.284 36.64 212.844 35.296C211.42 33.936 210.708 32.104 210.708 29.8C210.708 27.48 211.42 25.648 212.844 24.304C214.284 22.944 216.132 22.264 218.388 22.264C220.66 22.264 222.588 22.744 224.172 23.704L224.7 27.112H224.484C224.148 25.704 223.492 24.664 222.516 23.992C221.556 23.32 220.188 22.984 218.412 22.984C216.652 22.984 215.212 23.6 214.092 24.832C212.988 26.048 212.436 27.704 212.436 29.8C212.436 31.896 212.996 33.56 214.116 34.792C215.236 36.008 216.78 36.616 218.748 36.616C220.732 36.616 222.436 35.92 223.86 34.528L223.884 31.336C223.9 31.048 223.804 30.824 223.596 30.664C223.404 30.488 223.132 30.4 222.78 30.4H222.444V30.16H226.836V30.4H226.5C225.78 30.4 225.42 30.72 225.42 31.36V34.24C224.748 35.072 223.82 35.8 222.636 36.424C221.468 37.032 220.116 37.336 218.58 37.336ZM228.625 36.76C229.009 36.76 229.329 36.64 229.585 36.4C229.857 36.144 230.001 35.84 230.017 35.488V24.088C230.017 23.736 229.881 23.44 229.609 23.2C229.337 22.96 229.009 22.84 228.625 22.84H228.289V22.6H235.297C235.953 22.6 236.529 22.552 237.025 22.456C237.521 22.36 237.841 22.28 237.985 22.216V24.952L237.721 24.928V24.568C237.721 24.232 237.609 23.944 237.385 23.704C237.161 23.464 236.873 23.344 236.521 23.344H231.529V29.44H235.633C235.953 29.44 236.193 29.344 236.353 29.152C236.529 28.96 236.617 28.72 236.617 28.432V28.12H236.881V31.48H236.617V31.168C236.617 30.72 236.449 30.416 236.113 30.256C235.985 30.208 235.849 30.176 235.705 30.16H231.529V36.256H235.297C236.033 36.256 236.649 36.128 237.145 35.872C237.657 35.616 238.041 35.312 238.297 34.96C238.569 34.608 238.841 34.144 239.113 33.568H239.353L238.033 37H228.289V36.76H228.625ZM257.518 22.84C257.166 22.84 256.862 22.96 256.606 23.2C256.35 23.424 256.214 23.704 256.198 24.04V34.264C256.198 35.192 256.254 36.072 256.366 36.904L256.414 37.336H256.198L243.718 25.504V35.512C243.718 35.864 243.846 36.16 244.102 36.4C244.358 36.64 244.67 36.76 245.038 36.76H245.446V37H240.91V36.76H241.318C241.686 36.76 241.998 36.64 242.254 36.4C242.51 36.16 242.638 35.864 242.638 35.512V25.24C242.638 24.264 242.582 23.392 242.47 22.624L242.422 22.24L242.686 22.264L255.142 34V24.04C255.11 23.704 254.966 23.424 254.71 23.2C254.454 22.96 254.15 22.84 253.798 22.84H253.39V22.6H257.926V22.84H257.518ZM267.776 37.336C265.328 37.32 263.392 36.64 261.968 35.296C260.56 33.952 259.856 32.12 259.856 29.8C259.856 27.464 260.56 25.624 261.968 24.28C263.392 22.936 265.328 22.264 267.776 22.264C268.768 22.264 269.768 22.392 270.776 22.648C271.784 22.904 272.656 23.256 273.392 23.704L273.92 27.112H273.704C273.016 24.36 271.032 22.984 267.752 22.984C265.848 22.984 264.344 23.592 263.24 24.808C262.136 26.024 261.584 27.688 261.584 29.8C261.584 31.176 261.832 32.376 262.328 33.4C262.824 34.408 263.544 35.192 264.488 35.752C265.432 36.312 266.528 36.592 267.776 36.592C269.024 36.592 270.112 36.408 271.04 36.04C271.984 35.656 272.76 35.032 273.368 34.168C273.992 33.304 274.344 32.232 274.424 30.952H274.64L274.376 34.24C273.752 35.2 272.848 35.96 271.664 36.52C270.48 37.064 269.184 37.336 267.776 37.336ZM291.058 22.84H290.77C290.338 22.84 289.922 22.96 289.522 23.2C289.138 23.424 288.818 23.712 288.562 24.064L283.954 31.048V35.464C283.954 35.816 284.09 36.12 284.362 36.376C284.634 36.632 284.962 36.76 285.346 36.76H285.634V37H280.714V36.76H281.002C281.386 36.76 281.714 36.632 281.986 36.376C282.258 36.12 282.394 35.816 282.394 35.464V31.024L277.954 24.04C277.41 23.24 276.674 22.84 275.746 22.84H275.458V22.6H281.026V22.84H280.738C280.434 22.84 280.21 22.936 280.066 23.128C279.938 23.32 279.874 23.488 279.874 23.632C279.874 23.76 279.89 23.88 279.922 23.992L283.426 30.208L287.146 24.016C287.194 23.888 287.218 23.76 287.218 23.632C287.218 23.488 287.146 23.32 287.002 23.128C286.874 22.936 286.65 22.84 286.33 22.84H286.042V22.6H291.058V22.84Z" fill="white"/>
<path d="M304.738 36.424C304.183 36.9787 303.5 37.256 302.69 37.256C301.879 37.256 301.196 36.9787 300.642 36.424C300.087 35.8693 299.81 35.1867 299.81 34.376C299.81 33.5653 300.087 32.8827 300.642 32.328C301.196 31.7733 301.879 31.496 302.69 31.496C303.5 31.496 304.183 31.7733 304.738 32.328C305.292 32.8827 305.57 33.5653 305.57 34.376C305.57 35.1867 305.292 35.8693 304.738 36.424Z" fill="#FFA500"/>
<rect x="0.5" y="0.5" width="314" height="54" rx="9.5" stroke="white"/>
</svg>
